# xmcd CD database file
#
# Track frame offsets:
#	150
#	14955
#	30022
#	54200
#	67500
#	85260
#	106250
#	122505
#	134757
#	146002
#	159690
#
# Disc length: 2357 seconds
#
# Revision: 0
# Processed by: cddbd v1.5.1PL2 Copyright (c) Steve Scherf et al.
# Submitted via: CDex 1.51
#
DISCID=8a09330b
DTITLE=Bruce Robison - Eleven Stories
DYEAR=2006
DGENRE=Country
TTITLE0=Every Once in a While
TTITLE1=Virginia
TTITLE2=Tennessee Jed
TTITLE3=More and More
TTITLE4=Days Go By
TTITLE5=All Over But The Cryin'
TTITLE6=Don't Call it Love
TTITLE7=You Really Let Yourself Go
TTITLE8=I Never Fly
TTITLE9=Kitchen Blues
TTITLE10=Bandera Waltz
EXTD=YEAR: 2006
EXTT0=
EXTT1=
EXTT2=
EXTT3=
EXTT4=
EXTT5=
EXTT6=
EXTT7=
EXTT8=
EXTT9=
EXTT10=
PLAYORDER=
